<svg width="392" height="140" viewBox="0 0 280 100" fill="none" xmlns="http://www.w3.org/2000/svg">
<path d="M22.0195 12V65.8431" stroke="black"/>
<path d="M28.0195 12V65.8431" stroke="black"/>
<path d="M34.0215 12V65.8431" stroke="black"/>
<path d="M40.0215 12V65.8431" stroke="black"/>
<path d="M46.0195 12V65.8431" stroke="black"/>
<path d="M52.0195 12V65.8431" stroke="black"/>
<path d="M58.0176 12V65.8431" stroke="black"/>
<path d="M64.0176 12V65.8431" stroke="black"/>
<path d="M70.0195 12V65.8431" stroke="black"/>
<path d="M76.0195 12V65.8431" stroke="black"/>
<path d="M82.0215 12V65.8431" stroke="black"/>
<path d="M88.0215 12V65.8431" stroke="black"/>
<path d="M94.0195 12V65.8431" stroke="black"/>
<path d="M100.02 12V65.8431" stroke="black"/>
<path d="M106.02 12V65.8431" stroke="black"/>
<path d="M112.021 12V65.8431" stroke="black"/>
<path d="M118.021 12V65.8431" stroke="black"/>
<path d="M124.02 12V65.8431" stroke="black"/>
<path d="M130.02 12V65.8431" stroke="black"/>
<path d="M136.021 12V65.8431" stroke="black"/>
<path d="M142.018 12V65.8431" stroke="black"/>
<path d="M148.02 12V65.8431" stroke="black"/>
<path d="M154.02 12V65.8431" stroke="black"/>
<path d="M160.021 12V65.8431" stroke="black"/>
<path d="M166.021 12V65.8431" stroke="black"/>
<path d="M172.023 12V65.8431" stroke="black"/>
<path d="M178.023 12V65.8431" stroke="black"/>
<path d="M184.023 12V65.8431" stroke="black"/>
<path d="M190.018 12V65.8431" stroke="black"/>
<path d="M196.018 12V65.8431" stroke="black"/>
<path d="M202.02 12V65.8431" stroke="black"/>
<path d="M208.02 12V65.8431" stroke="black"/>
<path d="M214.021 12V65.8431" stroke="black"/>
<path d="M220.021 12V65.8431" stroke="black"/>
<path d="M226.023 12V65.8431" stroke="black"/>
<path d="M232.023 12V65.8431" stroke="black"/>
<path d="M238.021 12V65.8431" stroke="black"/>
<path d="M244.021 12V65.8431" stroke="black"/>
<path d="M250.02 12V65.8431" stroke="black"/>
<path d="M256.02 12V65.8431" stroke="black"/>
<path d="M22.0195 50.6196V12" stroke="black" stroke-width="3"/>
<path d="M28.0195 49.2724V12" stroke="black" stroke-width="3"/>
<path d="M34.0215 47.9252V12" stroke="black" stroke-width="3"/>
<path d="M40.0215 46.578V12" stroke="black" stroke-width="3"/>
<path d="M46.0195 45.2308V12" stroke="black" stroke-width="3"/>
<path d="M52.0195 43.8836V12" stroke="black" stroke-width="3"/>
<path d="M58.0176 42.5364V12" stroke="black" stroke-width="3"/>
<path d="M64.0176 41.1892V12" stroke="black" stroke-width="3"/>
<path d="M70.0195 40.2911V12" stroke="black" stroke-width="3"/>
<path d="M76.0195 38.9439V12" stroke="black" stroke-width="3"/>
<path d="M82.0215 37.5967V12" stroke="black" stroke-width="3"/>
<path d="M88.0215 35.8004V12" stroke="black" stroke-width="3"/>
<path d="M94.0195 34.4532V12" stroke="black" stroke-width="3"/>
<path d="M100.02 33.5551V12" stroke="black" stroke-width="3"/>
<path d="M106.02 32.2079V12" stroke="black" stroke-width="3"/>
<path d="M112.021 30.8607V12" stroke="black" stroke-width="3"/>
<path d="M118.021 30.8607V12" stroke="black" stroke-width="3"/>
<path d="M124.02 32.657V12" stroke="black" stroke-width="3"/>
<path d="M130.02 34.4532V12" stroke="black" stroke-width="3"/>
<path d="M136.021 37.1476V12" stroke="black" stroke-width="3"/>
<path d="M142.018 39.393V12" stroke="black" stroke-width="3"/>
<path d="M148.02 41.6383V12" stroke="black" stroke-width="3"/>
<path d="M154.02 43.8836V12" stroke="black" stroke-width="3"/>
<path d="M160.021 42.5364V12" stroke="black" stroke-width="3"/>
<path d="M166.021 39.842V12" stroke="black" stroke-width="3"/>
<path d="M172.023 37.5967V12" stroke="black" stroke-width="3"/>
<path d="M178.023 35.3514V12" stroke="black" stroke-width="3"/>
<path d="M184.023 33.1061V12" stroke="black" stroke-width="3"/>
<path d="M190.018 30.4117V12" stroke="black" stroke-width="3"/>
<path d="M196.018 28.6154V12" stroke="black" stroke-width="3"/>
<path d="M202.02 25.921V12" stroke="black" stroke-width="3"/>
<path d="M208.02 23.6757V12" stroke="black" stroke-width="3"/>
<path d="M214.021 24.1248V12" stroke="black" stroke-width="3"/>
<path d="M220.021 25.921V12" stroke="black" stroke-width="3"/>
<path d="M226.023 27.7173V12" stroke="black" stroke-width="3"/>
<path d="M232.023 29.5135V12" stroke="black" stroke-width="3"/>
<path d="M238.021 31.3098V12" stroke="black" stroke-width="3"/>
<path d="M244.021 33.1061V12" stroke="black" stroke-width="3"/>
<path d="M250.02 35.3514V12" stroke="black" stroke-width="3"/>
<path d="M256.02 37.5967V12" stroke="black" stroke-width="3"/>
<path d="M30.848 88H20.96V85.72C20.96 84.568 21.112 83.608 21.416 82.84C21.72 82.056 22.128 81.416 22.64 80.92C23.152 80.408 23.712 80 24.32 79.696L25.952 78.88C26.576 78.56 27.08 78.224 27.464 77.872C27.864 77.504 28.064 77.032 28.064 76.456V76.024C28.064 75.432 27.856 74.968 27.44 74.632C27.04 74.28 26.392 74.104 25.496 74.104C24.952 74.104 24.4 74.184 23.84 74.344C23.296 74.504 22.632 74.728 21.848 75.016L20.96 72.544C21.856 72.144 22.672 71.864 23.408 71.704C24.16 71.528 24.888 71.44 25.592 71.44C26.888 71.44 27.92 71.648 28.688 72.064C29.472 72.48 30.032 73.04 30.368 73.744C30.72 74.432 30.896 75.192 30.896 76.024V76.456C30.896 77.32 30.72 78.056 30.368 78.664C30.032 79.272 29.584 79.784 29.024 80.2C28.464 80.616 27.856 80.984 27.2 81.304L25.568 82.12C24.976 82.408 24.536 82.808 24.248 83.32C23.976 83.832 23.824 84.488 23.792 85.288H30.848V88ZM45.9412 88L44.9332 84.808H39.3412L38.3332 88H35.4772L40.9252 71.68H43.4692L48.9412 88H45.9412ZM40.9012 79.816L40.1572 82.168H44.0932L43.3492 79.816L42.1492 75.688L40.9012 79.816ZM62.2319 88V71.68H67.7519C69.7039 71.68 71.1919 72.224 72.2159 73.312C73.2399 74.4 73.7519 76 73.7519 78.112V81.544C73.7519 83.672 73.2399 85.28 72.2159 86.368C71.1919 87.456 69.7039 88 67.7519 88H62.2319ZM67.6319 74.44H65.1119V85.24H67.6319C68.7679 85.24 69.5759 84.96 70.0559 84.4C70.5519 83.84 70.7999 82.888 70.7999 81.544V78.112C70.7999 76.784 70.5519 75.84 70.0559 75.28C69.5759 74.72 68.7679 74.44 67.6319 74.44ZM89.8961 85.24V88H80.4401V71.68H89.6561V74.44H83.3201V78.352H88.9361V81.112H83.3201V85.24H89.8961ZM99.7393 85.576C101.595 85.576 102.523 84.888 102.523 83.512C102.523 82.952 102.379 82.512 102.091 82.192C101.819 81.872 101.307 81.592 100.555 81.352L98.5873 80.704C96.2353 79.936 95.0593 78.392 95.0593 76.072C95.0593 74.728 95.4753 73.624 96.3073 72.76C97.1553 71.88 98.4753 71.44 100.267 71.44C101.019 71.44 101.763 71.528 102.499 71.704C103.235 71.864 104.019 72.128 104.851 72.496L103.963 74.968C103.195 74.664 102.539 74.448 101.995 74.32C101.467 74.176 100.923 74.104 100.363 74.104C99.6273 74.104 99.0433 74.24 98.6113 74.512C98.1953 74.768 97.9873 75.24 97.9873 75.928C97.9873 76.44 98.1313 76.864 98.4193 77.2C98.7233 77.52 99.2193 77.792 99.9073 78.016L101.875 78.664C103.059 79.064 103.947 79.648 104.539 80.416C105.147 81.168 105.451 82.168 105.451 83.416C105.451 84.856 104.995 86.024 104.083 86.92C103.171 87.8 101.739 88.24 99.7873 88.24C99.0193 88.24 98.2193 88.152 97.3873 87.976C96.5713 87.784 95.6753 87.464 94.6993 87.016L95.5873 84.544C96.4833 84.928 97.2433 85.2 97.8673 85.36C98.5073 85.504 99.1313 85.576 99.7393 85.576ZM114.369 88H111.489V71.68H114.369V88ZM132.552 86.944C132.152 87.184 131.488 87.464 130.56 87.784C129.648 88.088 128.576 88.24 127.344 88.24C125.952 88.24 124.784 87.952 123.84 87.376C122.912 86.8 122.208 86.008 121.728 85C121.248 83.992 121.008 82.84 121.008 81.544V78.112C121.008 76.784 121.248 75.624 121.728 74.632C122.208 73.624 122.92 72.84 123.864 72.28C124.824 71.72 126.024 71.44 127.464 71.44C128.168 71.44 128.896 71.52 129.648 71.68C130.4 71.824 131.224 72.096 132.12 72.496L131.232 75.016C130.448 74.712 129.768 74.496 129.192 74.368C128.632 74.224 128.072 74.152 127.512 74.152C126.264 74.152 125.36 74.512 124.8 75.232C124.24 75.936 123.96 76.896 123.96 78.112V81.544C123.96 82.696 124.24 83.64 124.8 84.376C125.376 85.112 126.272 85.48 127.488 85.48C127.856 85.48 128.256 85.448 128.688 85.384C129.12 85.32 129.536 85.232 129.936 85.12V81.544H127.296V79.024H132.552V86.944ZM139.093 88V71.68H141.733C142.997 73.328 144.197 75.072 145.333 76.912C146.469 78.736 147.501 80.616 148.429 82.552L148.213 77.68V71.68H150.973V88H148.333C147.309 85.984 146.245 83.96 145.141 81.928C144.053 79.88 142.893 77.952 141.661 76.144L141.853 81.76V88H139.093ZM169.592 85.576C171.448 85.576 172.376 84.888 172.376 83.512C172.376 82.952 172.232 82.512 171.944 82.192C171.672 81.872 171.16 81.592 170.408 81.352L168.44 80.704C166.088 79.936 164.912 78.392 164.912 76.072C164.912 74.728 165.328 73.624 166.16 72.76C167.008 71.88 168.328 71.44 170.12 71.44C170.872 71.44 171.616 71.528 172.352 71.704C173.088 71.864 173.872 72.128 174.704 72.496L173.816 74.968C173.048 74.664 172.392 74.448 171.848 74.32C171.32 74.176 170.776 74.104 170.216 74.104C169.48 74.104 168.896 74.24 168.464 74.512C168.048 74.768 167.84 75.24 167.84 75.928C167.84 76.44 167.984 76.864 168.272 77.2C168.576 77.52 169.072 77.792 169.76 78.016L171.728 78.664C172.912 79.064 173.8 79.648 174.392 80.416C175 81.168 175.304 82.168 175.304 83.416C175.304 84.856 174.848 86.024 173.936 86.92C173.024 87.8 171.592 88.24 169.64 88.24C168.872 88.24 168.072 88.152 167.24 87.976C166.424 87.784 165.528 87.464 164.552 87.016L165.44 84.544C166.336 84.928 167.096 85.2 167.72 85.36C168.36 85.504 168.984 85.576 169.592 85.576ZM179.398 74.44V71.68H191.398V74.44H186.838V88H183.958V74.44H179.398ZM196.471 71.68H199.423V82.144C199.423 83.2 199.655 84.032 200.119 84.64C200.583 85.232 201.327 85.528 202.351 85.528C203.375 85.528 204.119 85.232 204.583 84.64C205.047 84.032 205.279 83.2 205.279 82.144V71.68H208.231V82.144C208.231 83.984 207.743 85.464 206.767 86.584C205.791 87.688 204.319 88.24 202.351 88.24C200.367 88.24 198.887 87.688 197.911 86.584C196.951 85.464 196.471 83.984 196.471 82.144V71.68ZM215.251 88V71.68H220.771C222.723 71.68 224.211 72.224 225.235 73.312C226.259 74.4 226.771 76 226.771 78.112V81.544C226.771 83.672 226.259 85.28 225.235 86.368C224.211 87.456 222.723 88 220.771 88H215.251ZM220.651 74.44H218.131V85.24H220.651C221.787 85.24 222.595 84.96 223.075 84.4C223.571 83.84 223.819 82.888 223.819 81.544V78.112C223.819 76.784 223.571 75.84 223.075 75.28C222.595 74.72 221.787 74.44 220.651 74.44ZM236.339 88H233.459V71.68H236.339V88ZM255.266 78.112V81.544C255.266 83.624 254.746 85.264 253.706 86.464C252.666 87.648 251.146 88.24 249.146 88.24C247.13 88.24 245.602 87.648 244.562 86.464C243.538 85.264 243.026 83.624 243.026 81.544V78.112C243.026 76.032 243.538 74.4 244.562 73.216C245.602 72.032 247.13 71.44 249.146 71.44C251.146 71.44 252.666 72.032 253.706 73.216C254.746 74.4 255.266 76.032 255.266 78.112ZM252.314 78.112C252.314 76.8 252.058 75.816 251.546 75.16C251.034 74.488 250.234 74.152 249.146 74.152C248.058 74.152 247.258 74.488 246.746 75.16C246.234 75.816 245.978 76.8 245.978 78.112V81.544C245.978 82.856 246.234 83.848 246.746 84.52C247.258 85.192 248.058 85.528 249.146 85.528C250.234 85.528 251.034 85.192 251.546 84.52C252.058 83.848 252.314 82.856 252.314 81.544V78.112Z" fill="black"/>
</svg>
