<svg width="250" height="92" viewBox="0 0 250 92" fill="none" xmlns="http://www.w3.org/2000/svg">
<rect width="250" height="92" fill="#F3C299"/>
<path d="M7.75781 6.5V63" stroke="black"/>
<path d="M14.686 6.5V63" stroke="black"/>
<path d="M21.6177 6.5V63" stroke="black"/>
<path d="M28.5464 6.5V63" stroke="black"/>
<path d="M35.4756 6.5V63" stroke="black"/>
<path d="M42.4053 6.5V63" stroke="black"/>
<path d="M49.3359 6.5V63" stroke="black"/>
<path d="M56.2646 6.5V63" stroke="black"/>
<path d="M63.1948 6.5V63" stroke="black"/>
<path d="M70.1235 6.5V63" stroke="black"/>
<path d="M77.0552 6.5V63" stroke="black"/>
<path d="M83.9829 6.5V63" stroke="black"/>
<path d="M90.9131 6.5V63" stroke="black"/>
<path d="M97.8418 6.5V63" stroke="black"/>
<path d="M104.772 6.5V63" stroke="black"/>
<path d="M111.701 6.5V63" stroke="black"/>
<path d="M118.631 6.5V63" stroke="black"/>
<path d="M125.561 6.5V63" stroke="black"/>
<path d="M132.49 6.5V63" stroke="black"/>
<path d="M139.419 6.5V63" stroke="black"/>
<path d="M146.349 6.5V63" stroke="black"/>
<path d="M153.278 6.5V63" stroke="black"/>
<path d="M160.208 6.5V63" stroke="black"/>
<path d="M167.137 6.5V63" stroke="black"/>
<path d="M174.067 6.5V63" stroke="black"/>
<path d="M180.996 6.5V63" stroke="black"/>
<path d="M187.927 6.5V63" stroke="black"/>
<path d="M194.855 6.5V63" stroke="black"/>
<path d="M201.786 6.5V63" stroke="black"/>
<path d="M208.715 6.5V63" stroke="black"/>
<path d="M215.645 6.5V63" stroke="black"/>
<path d="M222.575 6.5V63" stroke="black"/>
<path d="M229.504 6.5V63" stroke="black"/>
<path d="M236.433 6.5V63" stroke="black"/>
<path d="M243.364 6.5V63" stroke="black"/>
<path d="M8.0166 46V6M14.9271 44.5V6M21.8377 43V6M28.7482 41.5V6M35.6587 40V6M42.5692 38.5V6M49.4798 37.5V6M56.3903 36V6M63.3008 34.5V6M70.2114 32.5V6M77.1219 31V6M84.0324 30V6M90.9429 28.5V6M97.8535 27V6M104.764 27V6M111.675 29V6M118.585 31V6M125.496 34V6M132.406 36.5V6M139.317 39V6M146.227 41.5V6M153.138 40V6M160.048 37V6M166.959 34.5V6M173.869 32V6M180.78 29.5V6M187.69 26.5V6M194.601 24.5V6M201.511 21.5V6M208.422 19V6M215.332 19.5V6M222.243 21.5V6M229.153 23.5V6M236.064 25.5V6M242.975 27.5V6" stroke="#3A3A3A" stroke-width="3"/>
<path d="M16.9746 86H6.9712V83.6934C6.9712 82.528 7.12497 81.5568 7.43252 80.7798C7.74007 79.9867 8.15283 79.3392 8.6708 78.8374C9.18877 78.3194 9.75531 77.9067 10.3704 77.5991L12.0214 76.7736C12.6527 76.4499 13.1626 76.1099 13.5511 75.7538C13.9557 75.3815 14.1581 74.904 14.1581 74.3213V73.8843C14.1581 73.2854 13.9477 72.816 13.5268 72.476C13.1221 72.1199 12.4666 71.9419 11.5601 71.9419C11.0098 71.9419 10.4513 72.0228 9.8848 72.1847C9.33445 72.3465 8.66271 72.5732 7.86956 72.8645L6.9712 70.3637C7.87765 69.959 8.70317 69.6757 9.44776 69.5139C10.2085 69.3358 10.945 69.2468 11.6572 69.2468C12.9684 69.2468 14.0124 69.4572 14.7894 69.8781C15.5825 70.2989 16.149 70.8655 16.489 71.5777C16.8451 72.2737 17.0231 73.0426 17.0231 73.8843V74.3213C17.0231 75.1954 16.8451 75.94 16.489 76.5551C16.149 77.1702 15.6958 77.6881 15.1293 78.109C14.5627 78.5299 13.9477 78.9021 13.284 79.2259L11.633 80.0514C11.0341 80.3428 10.5889 80.7474 10.2976 81.2654C10.0224 81.7834 9.86861 82.447 9.83624 83.2564H16.9746V86ZM32.2438 86L31.2241 82.7708H25.5668L24.5471 86H21.6578L27.1693 69.4896H29.743L35.2788 86H32.2438ZM27.145 77.7205L26.3924 80.1H30.3743L29.6216 77.7205L28.4076 73.5444L27.145 77.7205ZM48.7246 86V69.4896H54.309C56.2838 69.4896 57.7892 70.0399 58.8251 71.1406C59.8611 72.2413 60.379 73.86 60.379 75.9966V79.4687C60.379 81.6215 59.8611 83.2483 58.8251 84.349C57.7892 85.4497 56.2838 86 54.309 86H48.7246ZM54.1876 72.2818H51.6382V83.2078H54.1876C55.3369 83.2078 56.1543 82.9245 56.6399 82.358C57.1417 81.7915 57.3926 80.8284 57.3926 79.4687V75.9966C57.3926 74.6531 57.1417 73.6981 56.6399 73.1316C56.1543 72.5651 55.3369 72.2818 54.1876 72.2818ZM76.7115 83.2078V86H67.1452V69.4896H76.4687V72.2818H70.0588V76.2394H75.7403V79.0316H70.0588V83.2078H76.7115ZM86.6695 83.5477C88.5472 83.5477 89.486 82.8517 89.486 81.4596C89.486 80.8931 89.3403 80.448 89.049 80.1242C88.7738 79.8005 88.2558 79.5172 87.4951 79.2744L85.5041 78.6189C83.1247 77.8419 81.9349 76.2799 81.9349 73.9328C81.9349 72.5732 82.3558 71.4563 83.1975 70.5822C84.0554 69.6919 85.3908 69.2468 87.2037 69.2468C87.9645 69.2468 88.7172 69.3358 89.4617 69.5139C90.2063 69.6757 90.9995 69.9428 91.8412 70.3151L90.9428 72.816C90.1659 72.5084 89.5022 72.2899 88.9519 72.1604C88.4177 72.0147 87.8674 71.9419 87.3008 71.9419C86.5562 71.9419 85.9654 72.0795 85.5284 72.3546C85.1075 72.6136 84.8971 73.0911 84.8971 73.7872C84.8971 74.3051 85.0428 74.7341 85.3341 75.074C85.6417 75.3977 86.1435 75.6729 86.8395 75.8995L88.8305 76.5551C90.0283 76.9597 90.9266 77.5506 91.5255 78.3275C92.1406 79.0883 92.4482 80.1 92.4482 81.3625C92.4482 82.8193 91.9869 84.0009 91.0642 84.9074C90.1416 85.7977 88.6929 86.2428 86.7181 86.2428C85.9411 86.2428 85.1318 86.1538 84.2901 85.9757C83.4646 85.7815 82.5581 85.4577 81.5707 85.0045L82.4691 82.5037C83.3756 82.8922 84.1444 83.1673 84.7757 83.3292C85.4232 83.4749 86.0545 83.5477 86.6695 83.5477ZM101.47 86H98.5565V69.4896H101.47V86ZM119.865 84.9317C119.46 85.1745 118.789 85.4577 117.85 85.7815C116.927 86.089 115.843 86.2428 114.596 86.2428C113.188 86.2428 112.006 85.9514 111.051 85.3687C110.113 84.786 109.4 83.9848 108.915 82.965C108.429 81.9452 108.186 80.7798 108.186 79.4687V75.9966C108.186 74.6531 108.429 73.4796 108.915 72.476C109.4 71.4563 110.121 70.6631 111.076 70.0966C112.047 69.5301 113.261 69.2468 114.718 69.2468C115.43 69.2468 116.166 69.3277 116.927 69.4896C117.688 69.6353 118.522 69.9105 119.428 70.3151L118.53 72.8645C117.736 72.557 117.049 72.3385 116.466 72.209C115.899 72.0633 115.333 71.9904 114.766 71.9904C113.504 71.9904 112.589 72.3546 112.023 73.083C111.456 73.7953 111.173 74.7665 111.173 75.9966V79.4687C111.173 80.6341 111.456 81.5891 112.023 82.3337C112.605 83.0783 113.512 83.4506 114.742 83.4506C115.114 83.4506 115.519 83.4182 115.956 83.3535C116.393 83.2887 116.814 83.1997 117.219 83.0864V79.4687H114.548V76.9193H119.865V84.9317ZM126.482 86V69.4896H129.153C130.432 71.1568 131.646 72.9212 132.795 74.7826C133.944 76.6279 134.988 78.5299 135.927 80.4884L135.709 75.5596V69.4896H138.501V86H135.83C134.794 83.9605 133.718 81.9129 132.601 79.8572C131.5 77.7853 130.327 75.8348 129.08 74.0057L129.274 79.6872V86H126.482ZM157.338 83.5477C159.215 83.5477 160.154 82.8517 160.154 81.4596C160.154 80.8931 160.008 80.448 159.717 80.1242C159.442 79.8005 158.924 79.5172 158.163 79.2744L156.172 78.6189C153.793 77.8419 152.603 76.2799 152.603 73.9328C152.603 72.5732 153.024 71.4563 153.866 70.5822C154.723 69.6919 156.059 69.2468 157.872 69.2468C158.633 69.2468 159.385 69.3358 160.13 69.5139C160.874 69.6757 161.668 69.9428 162.509 70.3151L161.611 72.816C160.834 72.5084 160.17 72.2899 159.62 72.1604C159.086 72.0147 158.535 71.9419 157.969 71.9419C157.224 71.9419 156.634 72.0795 156.196 72.3546C155.776 72.6136 155.565 73.0911 155.565 73.7872C155.565 74.3051 155.711 74.7341 156.002 75.074C156.31 75.3977 156.812 75.6729 157.508 75.8995L159.499 76.5551C160.696 76.9597 161.595 77.5506 162.194 78.3275C162.809 79.0883 163.116 80.1 163.116 81.3625C163.116 82.8193 162.655 84.0009 161.732 84.9074C160.81 85.7977 159.361 86.2428 157.386 86.2428C156.609 86.2428 155.8 86.1538 154.958 85.9757C154.133 85.7815 153.226 85.4577 152.239 85.0045L153.137 82.5037C154.044 82.8922 154.813 83.1673 155.444 83.3292C156.091 83.4749 156.723 83.5477 157.338 83.5477ZM167.258 72.2818V69.4896H179.398V72.2818H174.785V86H171.871V72.2818H167.258ZM184.53 69.4896H187.516V80.0757C187.516 81.144 187.751 81.9857 188.22 82.6008C188.69 83.1997 189.443 83.4992 190.478 83.4992C191.514 83.4992 192.267 83.1997 192.737 82.6008C193.206 81.9857 193.441 81.144 193.441 80.0757V69.4896H196.427V80.0757C196.427 81.9371 195.933 83.4344 194.946 84.5675C193.959 85.6844 192.469 86.2428 190.478 86.2428C188.471 86.2428 186.974 85.6844 185.987 84.5675C185.015 83.4344 184.53 81.9371 184.53 80.0757V69.4896ZM203.529 86V69.4896H209.113C211.088 69.4896 212.593 70.0399 213.629 71.1406C214.665 72.2413 215.183 73.86 215.183 75.9966V79.4687C215.183 81.6215 214.665 83.2483 213.629 84.349C212.593 85.4497 211.088 86 209.113 86H203.529ZM208.992 72.2818H206.442V83.2078H208.992C210.141 83.2078 210.958 82.9245 211.444 82.358C211.946 81.7915 212.197 80.8284 212.197 79.4687V75.9966C212.197 74.6531 211.946 73.6981 211.444 73.1316C210.958 72.5651 210.141 72.2818 208.992 72.2818ZM224.863 86H221.949V69.4896H224.863V86ZM244.01 75.9966V79.4687C244.01 81.5729 243.484 83.2321 242.432 84.4461C241.38 85.6439 239.842 86.2428 237.819 86.2428C235.779 86.2428 234.234 85.6439 233.182 84.4461C232.146 83.2321 231.628 81.5729 231.628 79.4687V75.9966C231.628 73.8924 232.146 72.2413 233.182 71.0435C234.234 69.8457 235.779 69.2468 237.819 69.2468C239.842 69.2468 241.38 69.8457 242.432 71.0435C243.484 72.2413 244.01 73.8924 244.01 75.9966ZM241.024 75.9966C241.024 74.6693 240.765 73.6739 240.247 73.0102C239.729 72.3304 238.92 71.9904 237.819 71.9904C236.718 71.9904 235.909 72.3304 235.391 73.0102C234.873 73.6739 234.614 74.6693 234.614 75.9966V79.4687C234.614 80.796 234.873 81.7996 235.391 82.4794C235.909 83.1592 236.718 83.4992 237.819 83.4992C238.92 83.4992 239.729 83.1592 240.247 82.4794C240.765 81.7996 241.024 80.796 241.024 79.4687V75.9966Z" fill="black"/>
<ellipse cx="210.202" cy="42.5" rx="17.6471" ry="17.5" fill="white" fill-opacity="0.6"/>
</svg>
